<svg width="182" height="182" viewBox="0 0 182 182" fill="none" xmlns="http://www.w3.org/2000/svg">
<g clip-path="url(#clip0_1_19)">
<path d="M91.119 11.8699C44.7902 11.8699 7.23551 47.4776 7.23551 91.405V147.079C7.23551 153.407 9.88666 159.476 14.6059 163.951C19.3252 168.426 25.7264 170.94 32.4006 170.94H86.9248V136.047C86.9248 128.086 86.4131 119.838 82.0093 113.062C78.8561 108.206 74.6384 104.049 69.6423 100.874C64.6462 97.6997 58.9883 95.5809 53.0527 94.6619L51.4463 94.415C50.784 94.2006 50.209 93.795 49.8018 93.2549C49.3949 92.7153 49.176 92.0683 49.176 91.405C49.176 90.7412 49.3949 90.0942 49.8018 89.5546C50.209 89.0145 50.784 88.6089 51.4463 88.3946L53.0527 88.1476C61.7254 86.8047 69.7342 82.9122 75.9478 77.0203C82.1619 71.1287 86.2672 63.5351 87.684 55.3116L87.944 53.7889C88.1701 53.161 88.5979 52.6158 89.1675 52.2296C89.7366 51.8439 90.419 51.6363 91.119 51.6363C91.8186 51.6363 92.501 51.8439 93.0706 52.2296C93.6397 52.6158 94.0675 53.161 94.294 53.7889L94.554 55.3116C95.5229 60.9399 97.7575 66.3045 101.106 71.042C104.454 75.7791 108.839 79.7781 113.96 82.7671C121.107 86.9426 129.806 87.4282 138.203 87.4282H174.902C172.708 45.3501 136.038 11.8699 91.119 11.8699Z" fill="#5044E5"/>
<path d="M175 95.3817H138.2C129.804 95.3817 121.105 95.8669 113.958 100.042C108.371 103.306 103.669 107.765 100.226 113.062C95.8224 119.838 95.3107 128.086 95.3107 136.047V170.94H149.835C156.509 170.94 162.91 168.426 167.629 163.951C172.349 159.476 175 153.407 175 147.079V95.3817ZM7.23299 19.8234C7.23299 21.9327 8.1167 23.9558 9.68994 25.4473C11.2632 26.9389 13.3968 27.7768 15.6213 27.7768C17.8459 27.7768 19.9795 26.9389 21.5527 25.4473C23.126 23.9558 24.0097 21.9327 24.0097 19.8234C24.0097 17.714 23.126 15.691 21.5527 14.1994C19.9795 12.7078 17.8459 11.8699 15.6213 11.8699C13.3968 11.8699 11.2632 12.7078 9.68994 14.1994C8.1167 15.691 7.23299 17.714 7.23299 19.8234Z" fill="#5044E5"/>
</g>
<defs>
<clipPath id="clip0_1_19">
<rect width="182" height="182" fill="white" transform="matrix(-1 0 0 1 182 0)"/>
</clipPath>
</defs>
</svg>
