<!DOCTYPE svg PUBLIC "-//W3C//DTD SVG 1.1//EN" "http://www.w3.org/Graphics/SVG/1.1/DTD/svg11.dtd">
<!-- Uploaded to: SVG Repo, www.svgrepo.com, Transformed by: SVG Repo Mixer Tools -->
<svg fill="#ffffff" width="800px" height="800px" viewBox="0 0 512 512" xmlns="http://www.w3.org/2000/svg" stroke="#ffffff">
<g id="SVGRepo_bgCarrier" stroke-width="0"/>
<g id="SVGRepo_tracerCarrier" stroke-linecap="round" stroke-linejoin="round"/>
<g id="SVGRepo_iconCarrier">
<title>ionicons-v5-g</title>
<path d="M368,192H192V112a64,64,0,1,1,128,0,16,16,0,0,0,32,0,96,96,0,1,0-192,0v80H144a64.07,64.07,0,0,0-64,64V432a64.07,64.07,0,0,0,64,64H368a64.07,64.07,0,0,0,64-64V256A64.07,64.07,0,0,0,368,192Z"/>
</g>
</svg>